<?xml version="1.0" encoding="utf-8"?>
<!-- Generator: Adobe Illustrator 18.1.1, SVG Export Plug-In . SVG Version: 6.00 Build 0)  -->
<svg version="1.1" id="Livello_1" xmlns="http://www.w3.org/2000/svg" xmlns:xlink="http://www.w3.org/1999/xlink" x="0px" y="0px"
	 viewBox="0 0 595.3 440.7" enable-background="new 0 0 595.3 440.7" xml:space="preserve">
<g>
	<g>
		<path fill="#010202" d="M121.5,86.8h-11.4c-1.3-0.8-2-1.6-2-2.2c0-0.7,0.7-1.5,2-2.4h61c0.6,0,1.1,0.2,1.6,0.6
			c0.4,0.4,0.6,0.9,0.6,1.6c0,0.7-0.2,1.3-0.6,1.7c-0.4,0.4-0.9,0.6-1.6,0.6H159v266h7.7c5.5,0,10.3-1.6,14.5-4.7
			c4.2-3.1,8.2-9.5,12.1-19.3c5.8-14.4,10-30.1,12.6-47.1c2.6-17,4-27.9,4.1-32.7c0.1-1.7,0.3-2.8,0.7-3.3l1.4-0.5l1.4,0.5
			c0.5,0.5,0.7,1,0.7,1.6l-1.5,110.2H110c-0.6,0-1.1-0.2-1.6-0.6c-0.4-0.4-0.6-1-0.6-1.7c0-0.7,0.2-1.3,0.6-1.7
			c0.4-0.4,1-0.6,1.6-0.6h11.5V86.8z"/>
		<path fill="#010202" d="M340.8,353h7.9c1.2,0.8,1.8,1.6,1.8,2.3c0,0.7-0.6,1.5-1.8,2.3H308V343c-2.3,5.6-5.1,9.8-8.4,12.6
			c-3.3,2.8-7,4.2-11.3,4.2c-9.7,0-17.4-7.3-23-21.8c-5.6-14.5-8.4-37.4-8.4-68.7c0-49.1,4.3-81.2,12.8-96.5
			c5.2-9.3,12-13.9,20.4-13.9c3.3,0,6.4,1,9.4,3c3,2,5.8,5,8.5,9.1V86.8h-10.3c-1.2-0.7-1.8-1.5-1.8-2.4c0-0.7,0.6-1.5,1.8-2.2h43
			V353z M308,191.5c0-8.2-1.7-14.7-5-19.6c-2.3-3.4-4.8-5.1-7.7-5.1c-1.4,0-2.7,0.6-3.9,1.9c-1.1,1.3-1.7,3-1.7,5v168.4
			c0,3.8,0.5,6.4,1.6,7.9c1.1,1.5,2.3,2.2,3.7,2.2c2.1,0,4.3-1.6,6.4-4.8c4.4-6,6.6-11.2,6.6-15.6V191.5z"/>
		<path fill="#010202" d="M411.9,341.7c-4.2,2.9-8.4,6.6-12.7,10.9c-4.3,4.3-7,6.5-8,6.5c-0.4,0-0.7-0.2-0.9-0.6
			c-0.2-0.4-0.4-1.2-0.4-2.4v-115c0-0.5,0.2-0.9,0.5-1.2c0.3-0.3,0.7-0.5,1.1-0.5c0.6,0,1.2,0.4,1.7,1.1c0.9,1.1,1.3,2.3,1.3,3.7
			v7.9c0,15.3,2.4,32.7,7.1,52.2c4.7,19.5,11,33.4,18.6,41.7c3.8,4.2,8.2,6.2,13.1,6.2c5.7,0,10.7-2.7,15-8.1
			c4.3-5.4,6.4-13.6,6.4-24.6c0-10.5-2-21.6-5.9-33.3c-5.1-15.6-16.5-40.6-34.1-75.1c-11-21.5-18-37-21-46.6
			c-3-9.6-4.5-18.9-4.5-27.9c0-17.9,4.2-32,12.7-42.1c8.5-10.1,18.1-15.2,29-15.2c9.3,0,17.6,4.9,25,14.8c6.1-3.3,12-7.4,17.7-12.3
			c1.9-1.7,3.2-2.6,3.8-2.6c0.2,0,0.5,0.1,0.7,0.4c0.2,0.5,0.4,1.3,0.4,2.6v99.4c0,1.3-0.3,2.4-0.9,3.3c-0.4,0.5-0.9,0.7-1.5,0.7
			c-0.7,0-1.3-0.3-1.6-0.9c-0.4-0.6-1.1-5-2.2-13.2c-5-38-11.6-63.1-19.9-75.4c-4.9-7.1-10.4-10.6-16.6-10.6
			c-4.6,0-8.6,2.1-12.1,6.2c-3.4,4.1-5.1,10.3-5.1,18.3c0,14.5,8.3,38.4,24.9,71.6l16.1,32.4c11.1,22.3,18.5,40.1,22.2,53.2
			c3.7,13.1,5.5,24.9,5.5,35.2c0,18.1-4.5,32.2-13.4,42.5c-8.9,10.3-19.3,15.4-31.3,15.4C429.9,360.4,419.6,354.1,411.9,341.7z"/>
	</g>
	<g>
		<path fill="#010202" d="M522,379.5H74v-319h448V379.5z M76,377.5h444v-315H76V377.5z"/>
	</g>
	<g>
		<path fill="#010202" d="M536,393.5H59v-346h477V393.5z M63,389.5h469v-338H63V389.5z"/>
	</g>
</g>
</svg>
